<?xml version="1.0" encoding="utf-8"?>
<svg xmlns="http://www.w3.org/2000/svg">
	<margin left="20" right="90" top="0" bottom="0" />
	<g>
		<path 
		style="fill: black; fill-opacity:1; stroke:#000000; stroke-width:2;"
		d="M57.2,7c-21.6,0-48.6,10.6-45.6,49c3.4,43,11,122.3,11.4,125.9c0,0.1,0,0.1,0,0.2		c5.3,32.8,35.6,43.8,65.6,43.8h201.1c73.4,0,69.2-40.2,73.4-81l61.6-7.8l-57.2-37.5l3.2-43.6c3.1-37.8-19.9-48.1-46.3-48.8H57.2V7z"/>
        <path 
		style="fill: white; stroke:#000000; stroke-width:2;"
		d="M45.8,0C24.2,0-2.8,10.5,0.2,48.9c3.4,43,11,122.3,11.4,125.9c0,0.1,0,0.1,0,0.2c5.3,32.8,35.6,43.8,65.6,43.8
		h201.1c73.4,0,69.2-40.2,73.4-81l61.6-7.8l-57.2-37.5l3.2-43.6c3.1-37.8-19.9-48.1-46.3-48.8H45.8V0z"/>
	</g>
</svg>
